<?xml version="1.0" standalone="no"?>
<!DOCTYPE svg PUBLIC "-//W3C//DTD SVG 20010904//EN"
 "http://www.w3.org/TR/2001/REC-SVG-20010904/DTD/svg10.dtd">
<svg version="1.0" xmlns="http://www.w3.org/2000/svg"
 width="506.000000pt" height="506.000000pt" viewBox="0 0 506.000000 506.000000"
 preserveAspectRatio="xMidYMid meet">
<metadata>
Created by potrace 1.11, written by Peter Selinger 2001-2013
</metadata>
<g transform="translate(0.000000,506.000000) scale(0.100000,-0.100000)"
fill="#000000" stroke="none">
<path d="M2211 4703 c-14 -3 -34 -11 -45 -18 -12 -7 -37 -16 -56 -20 -19 -4
-39 -10 -45 -14 -5 -3 -36 -6 -68 -6 -31 -1 -62 -6 -69 -13 -7 -7 -20 -12 -30
-12 -10 0 -28 -11 -39 -24 -12 -14 -34 -30 -50 -36 -16 -7 -29 -16 -29 -21 0
-5 -8 -9 -18 -9 -10 0 -33 -11 -52 -25 -19 -14 -40 -25 -47 -25 -7 0 -10 -6
-8 -12 7 -17 -38 -68 -59 -68 -9 0 -16 -4 -16 -9 0 -5 -10 -11 -22 -13 -13 -2
-22 -9 -20 -16 1 -8 -2 -11 -7 -8 -5 4 -13 0 -18 -7 -4 -7 -25 -26 -45 -41
-26 -20 -38 -36 -38 -53 0 -30 -40 -104 -52 -97 -5 3 -15 -12 -24 -33 -34 -85
-63 -139 -83 -157 -11 -10 -23 -34 -27 -53 -3 -18 -11 -37 -18 -41 -21 -13
-48 -87 -53 -144 -4 -35 -10 -55 -16 -51 -13 8 1 -108 16 -126 10 -12 9 -14
-5 -8 -20 7 -30 -16 -23 -52 4 -22 16 -36 38 -44 14 -5 -4 -36 -26 -43 -20 -6
-20 -7 3 -24 17 -13 21 -23 15 -36 -15 -37 -23 -84 -15 -89 13 -8 33 -256 33
-403 -1 -100 -32 -212 -59 -212 -11 0 -14 -24 -16 -107 -3 -201 -2 -228 10
-282 7 -29 12 -97 12 -150 0 -79 4 -103 21 -136 12 -22 21 -42 20 -45 -2 -2 2
-6 7 -8 15 -5 30 21 34 58 2 26 10 38 31 48 21 10 27 20 27 43 0 17 5 40 11
51 7 13 8 23 1 30 -6 6 -8 26 -5 44 4 23 2 34 -6 34 -8 0 -11 10 -7 28 3 15 8
53 11 85 2 32 7 62 10 66 5 9 12 108 20 281 6 143 34 241 76 271 25 18 37 44
54 114 1 6 6 19 10 30 8 17 10 112 5 195 -2 40 18 211 31 258 6 23 17 42 23
42 15 1 94 39 81 40 -5 0 -1 7 9 15 11 8 16 15 10 15 -5 0 7 14 26 30 24 21
46 30 70 30 19 0 31 4 25 8 -5 4 -11 14 -13 24 -2 12 8 18 38 23 22 4 40 10
40 14 0 4 23 18 50 30 28 13 56 29 63 36 8 7 29 15 48 18 19 3 51 11 72 17 22
6 46 9 55 5 9 -3 13 -3 9 1 -27 28 274 52 306 25 8 -6 17 -8 20 -4 4 3 17 -2
29 -13 12 -10 18 -14 15 -7 -13 21 9 23 49 3 21 -11 47 -20 57 -20 10 0 28 -6
40 -12 15 -9 72 -13 167 -14 133 -1 185 -4 339 -19 29 -3 60 -12 68 -20 8 -8
19 -15 24 -15 5 0 28 -17 52 -38 23 -21 66 -53 94 -71 29 -18 64 -46 78 -63
20 -24 25 -26 26 -11 1 27 17 -32 23 -86 3 -26 12 -61 21 -78 9 -17 16 -52 17
-77 0 -25 4 -43 9 -41 4 3 11 -11 14 -32 16 -103 38 -201 52 -228 88 -168 86
-161 94 -267 5 -57 14 -134 20 -173 5 -38 18 -135 27 -215 16 -133 19 -142 30
-114 7 16 12 43 11 59 -3 78 11 196 28 222 9 16 18 29 19 31 0 1 8 0 17 -3 22
-9 35 -51 36 -113 0 -29 3 -63 7 -75 7 -19 9 -17 15 17 3 21 3 55 -2 75 -5 20
-9 63 -9 97 0 47 -4 65 -19 78 -24 22 -32 59 -37 179 -2 53 -10 114 -17 135
-8 25 -10 61 -5 112 11 128 16 372 7 430 -4 30 -9 73 -10 95 -2 22 -7 47 -12
56 -6 10 -6 22 0 33 9 16 3 87 -13 156 l-6 25 -13 -25 -13 -25 -11 28 c-6 15
-15 27 -21 27 -5 0 -10 13 -10 29 0 15 -12 50 -26 77 -14 27 -27 64 -27 82 -1
25 -12 45 -49 82 -27 28 -58 50 -69 50 -19 0 -68 47 -79 77 -5 12 -10 11 -30
-5 -30 -24 -70 -14 -70 18 0 16 -6 20 -35 20 -19 0 -35 3 -35 8 0 4 -16 16
-35 26 -19 11 -42 30 -50 42 -9 13 -22 24 -30 24 -8 0 -15 4 -15 8 0 12 -125
112 -139 112 -6 0 -11 4 -11 8 0 17 -123 66 -195 77 -56 8 -119 27 -126 38
-14 19 -377 12 -409 -8 -5 -3 -15 2 -23 10 -9 8 -17 14 -19 14 -2 -1 -14 -4
-27 -6z m29 -23 c0 -5 -6 -10 -14 -10 -8 0 -18 5 -21 10 -3 6 3 10 14 10 12 0
21 -4 21 -10z m-994 -2266 c5 -25 2 -33 -20 -47 -15 -11 -28 -30 -32 -52 -3
-19 -10 -38 -15 -40 -4 -3 -6 -11 -3 -18 8 -21 9 -186 2 -179 -5 5 -9 28 -9
52 -1 25 -6 50 -11 56 -10 13 5 129 27 217 8 32 15 66 15 76 0 9 6 23 13 30
10 10 13 5 19 -26 5 -21 11 -52 14 -69z"/>
<path d="M2926 2931 c-4 -7 -15 -10 -23 -7 -8 3 -12 2 -9 -3 3 -5 -5 -11 -17
-15 -13 -3 -35 -16 -50 -29 -22 -19 -25 -25 -15 -36 9 -9 9 -12 1 -7 -6 3 -14
2 -18 -3 -3 -6 4 -8 16 -6 33 7 42 -5 22 -28 -17 -19 -17 -20 0 -14 11 4 17 1
17 -8 0 -8 5 -15 10 -15 6 0 10 5 10 11 0 5 5 7 10 4 14 -9 12 -25 -3 -25 -15
0 -57 -41 -57 -55 0 -5 -7 -16 -16 -26 -20 -22 -9 -42 18 -33 16 5 20 3 15 -9
-3 -8 -1 -19 5 -25 8 -8 4 -17 -15 -32 -15 -12 -27 -27 -27 -34 0 -13 58 -31
68 -21 3 3 -9 8 -26 11 -36 7 -33 24 5 24 16 0 27 -7 30 -19 8 -30 53 -4 53
30 0 16 7 30 16 33 20 8 17 11 36 -39 18 -46 32 -51 116 -40 50 6 55 9 70 45
l17 39 35 -15 35 -15 -25 -20 c-14 -12 -18 -17 -10 -13 13 7 13 5 1 -9 -12
-15 -11 -17 13 -17 14 0 26 4 26 8 0 10 2 10 99 13 l75 2 -37 16 c-42 18 -51
36 -11 21 38 -15 38 -13 7 21 -40 43 -68 56 -200 90 -114 30 -173 52 -173 67
1 20 20 31 70 41 84 16 99 19 108 25 4 2 34 -2 67 -10 72 -17 78 -17 70 -4 -7
12 2 12 30 0 11 -5 14 -9 8 -9 -7 -1 -13 -6 -13 -12 0 -6 9 -8 21 -4 15 5 19
4 15 -4 -4 -6 0 -12 8 -12 33 -3 37 -4 45 -17 6 -9 15 -10 33 -3 14 5 29 7 32
4 9 -10 7 4 -5 31 -7 14 -17 23 -22 19 -6 -4 -8 0 -5 9 6 16 -89 116 -105 110
-4 -1 -22 5 -40 13 -24 12 -27 12 -14 2 24 -20 21 -30 -5 -21 -21 6 -22 5 -8
-11 14 -17 13 -17 -7 -6 -13 6 -35 9 -49 7 -33 -6 -52 3 -33 15 9 6 -4 7 -31
3 -73 -10 -93 -10 -129 -1 -25 6 -36 5 -42 -5 -6 -9 -9 -9 -9 -1 0 7 8 16 18
22 14 8 12 9 -11 7 -15 -1 -30 -6 -34 -9 -11 -11 -41 -8 -45 5 -3 9 -6 9 -12
-1z m74 -25 c0 -3 -4 -8 -10 -11 -5 -3 -10 -1 -10 4 0 6 5 11 10 11 6 0 10 -2
10 -4z m210 -46 c0 -5 -5 -10 -11 -10 -5 0 -7 5 -4 10 3 6 8 10 11 10 2 0 4
-4 4 -10z m21 -205 c67 -23 119 -57 119 -77 0 -4 -8 -4 -17 2 -45 24 -113 49
-173 62 -58 12 -100 11 -184 -4 -32 -5 -28 17 6 35 45 22 153 14 249 -18z
m-111 -40 c0 -8 -4 -15 -9 -15 -13 0 -22 16 -14 24 11 11 23 6 23 -9z"/>
<path d="M3130 2932 c0 -5 -15 -7 -32 -6 l-33 3 35 -9 c21 -5 36 -5 38 1 2 5
9 6 14 3 7 -4 8 -2 4 4 -8 14 -26 16 -26 4z"/>
<path d="M1670 2921 c-8 -6 -18 -7 -22 -5 -10 7 -120 -104 -135 -136 -17 -38
-26 -64 -25 -72 1 -5 -5 -8 -13 -8 -21 0 -19 -14 10 -48 l24 -29 -27 4 c-25 4
-25 3 8 -16 19 -11 29 -20 23 -21 -16 0 -13 -48 4 -54 7 -3 10 1 7 8 -3 8 4
16 18 20 35 9 40 7 26 -8 -7 -8 -16 -12 -20 -10 -4 2 -8 -6 -10 -18 -3 -21
-17 -28 -81 -42 -42 -10 -22 -26 30 -26 45 0 46 0 28 -20 -23 -25 -18 -25 36
0 24 11 53 20 63 20 18 0 18 -2 -4 -25 l-24 -26 44 16 c49 17 60 13 42 -15
-11 -19 -9 -20 29 -20 22 0 38 -4 35 -9 -3 -5 4 -11 17 -14 34 -9 190 2 202
14 7 7 4 8 -10 3 -14 -5 -17 -4 -10 4 6 6 26 13 45 15 19 2 -8 4 -60 4 -94 -1
-124 4 -167 25 -17 8 -27 8 -40 -3 -16 -12 -17 -12 -6 2 7 8 14 26 16 40 4 22
8 24 58 21 30 -1 66 -2 81 -3 19 0 25 -4 21 -14 -6 -17 12 -20 22 -5 4 6 15 8
26 5 13 -4 19 -2 19 8 0 8 7 17 15 21 8 3 15 0 15 -6 0 -6 9 -1 20 12 11 13
20 18 20 11 0 -22 18 -1 25 29 7 32 25 39 44 16 9 -11 8 -17 -4 -29 -13 -14
-12 -16 15 -22 17 -4 30 -11 30 -15 0 -5 17 -12 38 -15 20 -4 49 -15 63 -25
l26 -19 24 32 c13 18 24 34 24 37 1 3 5 16 9 29 6 17 10 20 16 11 5 -7 6 -19
3 -26 -2 -6 0 -15 5 -18 6 -3 12 1 16 9 3 8 1 17 -4 20 -6 4 -10 23 -10 44 0
21 -6 44 -14 51 -8 6 -13 17 -10 24 3 8 -2 21 -11 30 -9 9 -13 16 -8 16 4 0
-3 7 -15 16 -12 8 -22 24 -22 34 0 10 -4 22 -10 25 -6 4 -7 -1 -4 -12 5 -17 5
-17 -9 -1 -8 10 -17 15 -20 12 -3 -3 -3 2 -1 13 6 22 -63 97 -96 106 -17 4
-19 3 -10 -8 8 -10 7 -14 -2 -17 -18 -6 -49 2 -43 12 2 4 -7 5 -22 2 -16 -3
-24 -1 -20 5 4 6 -12 13 -40 16 -53 6 -76 0 -66 -17 4 -6 0 -5 -9 2 -9 8 -25
12 -35 11 -26 -4 -73 10 -73 21 0 15 -27 12 -45 -6 -16 -17 -51 -12 -40 6 8
12 -25 13 -45 1z m245 -207 c61 -25 43 -46 -58 -69 -17 -3 -26 -2 -23 4 3 5
-8 4 -24 -2 -22 -8 -33 -9 -38 -1 -4 6 -19 10 -34 10 -15 -1 -25 0 -23 3 8 7
-16 42 -26 36 -5 -4 -9 -1 -9 5 0 7 9 9 23 6 12 -3 16 -3 10 0 -31 14 -7 20
77 22 59 1 102 -4 125 -14z m90 -114 c3 -5 2 -10 -4 -10 -5 0 -13 5 -16 10 -3
6 -2 10 4 10 5 0 13 -4 16 -10z"/>
<path d="M1735 2680 c3 -5 8 -10 11 -10 2 0 4 5 4 10 0 6 -5 10 -11 10 -5 0
-7 -4 -4 -10z"/>
<path d="M3475 2720 c4 -6 11 -7 17 -4 6 4 8 -1 3 -15 -5 -17 -3 -20 12 -14
34 12 36 16 12 29 -29 16 -53 18 -44 4z"/>
<path d="M2160 2440 c0 -5 4 -10 9 -10 6 0 13 5 16 10 3 6 -1 10 -9 10 -9 0
-16 -4 -16 -10z"/>
<path d="M2336 2415 c4 -8 10 -12 15 -9 14 8 10 24 -6 24 -9 0 -12 -6 -9 -15z"/>
<path d="M1988 2383 c7 -3 16 -2 19 1 4 3 -2 6 -13 5 -11 0 -14 -3 -6 -6z"/>
<path d="M3098 2383 c7 -3 16 -2 19 1 4 3 -2 6 -13 5 -11 0 -14 -3 -6 -6z"/>
<path d="M3183 2373 c9 -2 25 -2 35 0 9 3 1 5 -18 5 -19 0 -27 -2 -17 -5z"/>
<path d="M3748 2154 c-9 -14 7 -50 16 -36 4 7 3 19 -2 28 -5 9 -12 13 -14 8z"/>
<path d="M2162 2104 c-18 -20 -32 -39 -32 -42 0 -4 -15 -20 -32 -37 -17 -16
-37 -46 -45 -65 -9 -19 -24 -46 -34 -59 -30 -38 -62 -113 -63 -146 -1 -18 -6
-29 -14 -27 -6 1 -12 -5 -12 -14 0 -18 -87 -107 -115 -118 -14 -5 -16 -2 -12
14 6 24 -5 26 -23 5 -7 -9 -15 -13 -18 -10 -3 3 3 14 12 24 20 22 14 40 -13
38 -13 -1 -17 -7 -14 -22 3 -14 2 -16 -4 -7 -8 10 -15 8 -35 -8 -23 -17 -27
-18 -32 -4 -8 21 -8 34 2 33 26 -4 34 1 22 16 -11 13 -15 13 -22 3 -6 -10 -13
-8 -27 9 -10 12 -21 19 -25 16 -9 -9 -8 -63 2 -63 4 0 16 -13 27 -29 10 -16
23 -28 27 -25 12 8 50 -88 38 -100 -12 -12 -13 -29 -1 -22 4 3 17 -4 27 -15
10 -11 24 -17 31 -15 9 4 13 -5 14 -27 1 -21 3 -25 6 -11 2 12 15 26 29 33 33
15 39 14 25 -3 -9 -10 -8 -15 4 -20 9 -3 15 0 15 10 0 8 5 12 11 9 6 -4 8 -13
5 -20 -2 -7 1 -18 7 -24 8 -8 6 -15 -6 -28 -11 -12 -13 -23 -7 -33 8 -12 10
-12 16 3 3 9 11 17 17 17 7 0 7 -4 -1 -12 -17 -17 -15 -33 2 -19 7 6 33 12 57
14 42 2 43 1 52 -35 5 -21 12 -38 17 -38 11 0 33 -57 27 -72 -2 -7 -1 -40 4
-73 6 -43 14 -65 29 -77 20 -16 20 -19 5 -24 -9 -4 -20 -2 -24 5 -10 15 -56
-1 -64 -23 -7 -19 -37 -10 -37 10 0 8 -5 14 -11 14 -6 0 -9 7 -5 15 5 15 -4
19 -39 15 -15 -1 -17 1 -8 12 9 10 8 18 -3 32 -7 10 -11 24 -7 29 4 6 0 8 -10
4 -10 -3 -17 -2 -17 3 0 5 -8 7 -17 3 -17 -6 -17 -5 0 14 9 11 17 32 17 46 0
21 -5 27 -22 28 l-23 0 22 11 c12 6 24 16 26 23 5 13 -21 14 -41 1 -16 -10
-16 18 1 32 6 5 21 12 32 15 18 4 18 5 -3 6 -12 0 -40 -10 -62 -24 l-40 -25
-6 27 c-9 35 -38 65 -58 57 -27 -10 -13 53 18 80 28 23 28 24 7 31 -25 8 -41
-1 -41 -23 0 -32 -31 27 -33 63 -1 22 -7 35 -16 35 -8 0 -11 -6 -7 -15 3 -8 2
-15 -3 -15 -5 0 -11 11 -13 25 -3 14 -1 25 3 25 5 0 9 4 9 10 0 5 -7 7 -16 3
-13 -5 -15 2 -11 42 3 39 2 45 -8 32 -24 -33 -26 -15 -8 82 4 23 2 32 -5 27
-6 -3 -13 -2 -17 4 -11 18 -27 11 -22 -10 3 -12 1 -18 -5 -14 -5 3 -16 -3 -24
-14 -9 -14 -21 -19 -32 -15 -13 5 -12 1 5 -16 12 -11 27 -21 32 -21 6 0 15
-10 22 -21 9 -17 8 -24 -4 -36 -12 -13 -15 -11 -20 17 -5 21 -11 29 -19 24 -9
-6 -9 -9 0 -12 7 -2 12 -11 12 -20 0 -15 -2 -15 -10 -2 -5 8 -10 12 -10 7 0
-15 -60 24 -60 39 0 8 -4 12 -10 9 -5 -3 -10 3 -10 14 0 28 -34 28 -53 1 -17
-25 -11 -73 9 -66 13 5 28 -43 24 -75 -6 -38 1 -79 13 -76 7 1 12 -10 12 -32
1 -20 8 -38 19 -46 10 -8 15 -18 12 -23 -10 -17 5 -42 25 -42 22 0 24 -11 7
-28 -9 -9 -7 -17 11 -36 15 -16 19 -26 12 -31 -7 -4 1 -21 22 -46 23 -26 33
-48 31 -64 -2 -18 5 -29 27 -42 16 -10 29 -26 29 -36 0 -17 29 -61 113 -172
12 -16 33 -38 47 -49 14 -11 54 -51 90 -89 70 -75 240 -216 293 -243 43 -23
280 -103 342 -116 117 -24 298 10 415 80 25 15 61 34 80 43 92 44 443 431 551
609 29 48 51 170 30 170 -6 0 -8 8 -4 18 3 9 -6 0 -21 -20 -30 -43 -35 -68 -9
-47 9 8 14 10 12 4 -3 -5 -13 -27 -22 -47 -16 -36 -37 -51 -37 -27 0 6 -7 9
-14 6 -17 -7 -12 14 11 48 21 31 15 38 -16 19 -17 -10 -27 -23 -24 -31 4 -9 0
-11 -11 -7 -12 5 -19 -2 -27 -25 -6 -17 -15 -28 -20 -25 -5 3 -9 1 -9 -5 0 -5
5 -12 10 -14 6 -3 5 -4 -2 -3 -7 2 -13 12 -12 24 0 17 -5 21 -28 19 -24 -2
-26 -4 -13 -14 11 -7 12 -13 6 -18 -6 -3 -11 -15 -11 -26 0 -10 -4 -19 -10
-19 -5 0 -10 -7 -10 -16 0 -9 -6 -14 -12 -11 -7 2 -12 10 -10 16 1 7 -2 10 -7
7 -5 -4 -12 -2 -16 4 -3 5 -12 10 -18 10 -7 -1 -6 -5 4 -13 25 -19 20 -44 -8
-39 -16 3 -22 9 -19 19 4 8 9 26 12 39 3 13 12 24 20 24 10 0 11 6 5 23 -4 12
-6 27 -4 34 2 6 -3 25 -12 42 -9 18 -11 31 -5 31 5 0 10 -5 10 -12 0 -6 2 -9
5 -6 12 12 -8 36 -26 33 -11 -2 -17 0 -14 6 4 5 1 9 -5 9 -6 0 -8 5 -4 11 4 7
1 10 -7 7 -8 -3 -13 -17 -12 -32 1 -14 -3 -26 -8 -26 -5 0 -4 -6 3 -14 7 -8
17 -11 22 -6 5 5 17 -1 27 -15 21 -26 25 -40 7 -29 -6 4 -9 3 -5 -2 3 -5 -1
-18 -9 -29 -8 -10 -14 -13 -14 -7 0 7 -7 12 -15 12 -8 0 -15 5 -15 12 0 6 -2
9 -5 6 -9 -8 6 -38 16 -32 5 3 9 -2 9 -11 0 -9 -3 -14 -7 -12 -5 3 -8 -8 -9
-24 -1 -15 2 -26 6 -24 4 3 10 -4 13 -15 9 -34 -13 -33 -27 0 -13 31 -13 32
-19 9 -4 -13 -7 -33 -7 -44 0 -17 2 -17 10 -5 8 13 10 12 10 -2 0 -10 -5 -18
-11 -18 -5 0 -7 -5 -3 -12 5 -8 2 -9 -10 -5 -10 4 -15 3 -11 -3 3 -6 -3 -10
-15 -10 -16 0 -20 5 -16 18 3 9 2 23 -3 30 -14 23 -29 -25 -33 -105 -1 -24 -5
-30 -17 -25 -9 3 -22 13 -29 21 -9 11 -11 11 -6 2 5 -11 3 -13 -10 -8 -9 4
-15 3 -11 -2 3 -5 0 -11 -6 -13 -7 -2 -5 -9 5 -17 14 -12 16 -12 10 3 -6 15
-3 15 25 -1 33 -19 40 -46 17 -69 -8 -7 -16 -19 -19 -26 -3 -9 -9 -7 -21 7
-16 20 -16 20 -22 -2 l-6 -23 -20 26 c-25 32 -35 24 -13 -10 17 -26 12 -52 -7
-40 -7 5 -9 -2 -4 -22 4 -16 4 -25 -1 -21 -4 5 -8 27 -9 50 -2 79 -3 83 -24
83 -12 0 -25 -11 -32 -28 -8 -18 -15 -23 -20 -15 -5 8 -8 3 -8 -11 0 -13 4
-21 9 -18 5 4 7 -3 4 -14 -4 -16 -8 -18 -19 -9 -10 8 -14 8 -14 0 0 -6 -7 -11
-16 -11 -11 0 -14 -6 -9 -20 3 -11 2 -20 -3 -20 -6 0 -13 12 -17 28 l-8 27
-10 -33 c-7 -22 -15 -31 -24 -28 -8 3 -16 -1 -19 -9 -7 -17 -23 -11 -20 8 1 6
7 22 14 34 7 13 8 24 3 28 -5 3 -11 -3 -14 -12 -2 -10 -2 0 0 22 l5 40 -26
-34 c-14 -19 -26 -31 -26 -26 0 5 -12 -2 -27 -16 -21 -19 -25 -20 -20 -6 4 10
7 21 7 23 0 3 5 2 12 -2 8 -5 9 -2 5 10 -4 10 -3 15 3 11 6 -3 15 6 20 20 13
33 13 38 -1 30 -6 -4 -9 0 -7 10 5 30 -19 28 -31 -2 l-11 -28 5 30 c5 28 4 29
-10 11 -8 -10 -12 -23 -9 -27 3 -5 -2 -9 -10 -9 -14 0 -20 -16 -18 -41 1 -3
-5 -6 -13 -6 -17 0 -28 24 -15 32 16 10 12 28 -4 22 -10 -4 -16 2 -18 15 -3
17 -7 14 -30 -20 -16 -25 -22 -42 -15 -45 6 -2 3 -6 -7 -10 -9 -4 -15 -3 -11
2 3 5 1 12 -4 15 -5 4 -12 2 -16 -4 -12 -20 -26 -10 -15 11 7 11 9 23 6 27 -3
3 -6 0 -6 -7 0 -9 -4 -9 -14 1 -8 7 -12 16 -9 21 2 4 -1 7 -7 7 -6 0 -8 11 -6
26 5 25 5 26 -14 9 -11 -10 -20 -15 -20 -11 0 4 -9 2 -20 -4 -16 -8 -20 -8
-20 4 0 16 67 59 84 53 12 -4 26 5 72 54 27 28 41 35 67 33 17 -1 39 3 47 9 8
6 5 0 -7 -14 -44 -48 -19 -41 35 11 9 8 19 15 24 15 5 0 13 7 18 15 8 12 12
13 19 2 4 -8 10 -14 13 -15 8 -3 38 25 34 32 -2 3 2 12 10 19 8 7 14 9 15 5 0
-4 4 1 9 12 7 17 9 17 9 3 1 -12 6 -15 18 -11 10 4 14 2 9 -5 -4 -6 1 -10 12
-9 13 1 19 10 20 33 2 32 -18 59 -26 36 -2 -7 -9 -9 -15 -5 -16 11 -91 10 -98
-1 -4 -5 -13 -5 -20 0 -21 13 -42 14 -56 2 -7 -6 -13 -7 -13 -4 0 4 -9 2 -19
-3 -15 -8 -20 -7 -25 6 -4 9 -1 20 6 24 10 7 9 12 -4 26 -10 9 -18 12 -18 6 0
-7 -11 -10 -27 -8 -16 2 -32 4 -37 4 -4 1 -6 8 -2 16 3 8 1 15 -4 15 -6 0 -10
-8 -11 -17 0 -13 -3 -12 -10 6 -8 20 -11 22 -26 10 -11 -10 -17 -11 -20 -3 -2
7 -12 10 -22 7 -10 -3 -22 0 -25 6 -4 5 -13 8 -21 4 -8 -3 -15 -1 -15 4 0 6
-11 15 -25 21 -15 7 -25 20 -25 32 0 11 -6 20 -13 20 -8 0 -13 10 -13 23 1 14
-4 21 -13 19 -8 -2 -11 3 -8 12 3 8 1 17 -6 20 -7 3 -6 4 3 5 19 0 59 -17 43
-18 -7 -1 -13 -6 -13 -12 0 -6 9 -8 20 -4 14 5 20 2 20 -10 0 -26 29 -29 54
-5 22 20 32 21 140 19 80 -2 120 1 128 9 14 14 -2 16 -103 12 -47 -1 -70 2
-81 13 -15 15 -63 13 -74 -4 -6 -11 -25 -12 -22 -1 2 4 -5 18 -14 30 l-16 24
-22 -22 c-21 -21 -23 -21 -41 -4 -16 14 -39 71 -39 95 0 18 53 15 77 -4 23
-19 26 -19 35 -4 13 25 54 21 75 -7 l19 -24 17 29 c17 31 51 38 88 18 15 -7
35 -6 77 7 31 9 79 18 106 19 28 1 51 6 53 12 3 7 17 8 44 2 25 -6 47 -6 59 1
28 15 67 12 74 -5 5 -13 9 -13 25 -3 17 10 23 9 41 -7 25 -23 23 -61 -2 -57
-10 2 -18 -2 -18 -8 0 -5 7 -10 16 -10 28 0 98 23 115 37 16 14 49 8 49 -8 0
-5 6 -9 14 -9 24 0 44 -27 39 -54 -4 -20 -1 -25 15 -23 19 1 19 3 6 29 -18 35
-18 62 1 78 8 7 15 19 15 26 0 8 4 14 8 14 4 0 8 8 9 18 2 57 8 92 15 92 4 0
8 8 8 18 0 15 -2 15 -11 2 -9 -12 -10 -11 -6 8 3 12 1 22 -5 22 -5 0 -8 3 -6
8 2 4 -10 21 -26 37 -16 17 -26 24 -21 16 6 -11 4 -13 -8 -8 -12 4 -17 1 -17
-10 0 -13 -3 -14 -12 -5 -9 9 -7 16 10 32 23 22 30 74 12 85 -5 3 -10 13 -10
21 0 44 -165 234 -204 234 -18 0 -18 -2 7 -28 40 -42 157 -234 157 -259 0 -12
3 -30 7 -40 6 -16 5 -16 -10 -4 -9 7 -17 10 -18 5 0 -5 -2 -17 -4 -26 -2 -10
0 -18 5 -18 4 0 6 -12 4 -27 -1 -15 2 -33 8 -40 8 -10 7 -12 -6 -7 -9 3 -16
18 -17 33 0 23 -1 24 -9 6 -8 -18 -9 -18 -9 5 -1 14 -6 32 -12 40 -8 12 -9 8
-4 -13 4 -20 -1 -37 -16 -58 -11 -16 -19 -35 -16 -42 6 -16 -10 -57 -23 -57
-5 0 -10 6 -10 14 0 23 -22 31 -35 13 -7 -10 -26 -17 -44 -17 -31 0 -41 13
-19 26 6 4 8 3 5 -3 -4 -7 2 -10 16 -9 13 0 24 7 24 14 0 11 -11 16 -29 13 -5
0 -8 4 -8 9 0 6 4 10 9 10 5 0 13 10 17 23 3 12 14 31 23 42 13 16 13 17 1 8
-17 -13 -60 -14 -60 -2 0 4 7 9 15 13 8 3 15 0 15 -6 0 -6 2 -9 5 -6 3 3 3 12
-1 21 -4 12 -11 14 -30 7 -24 -9 -24 -9 -8 15 16 24 15 25 -5 25 -11 0 -21 -5
-21 -11 0 -8 -6 -7 -17 2 -9 8 -14 9 -10 3 3 -6 0 -11 -7 -11 -9 0 -13 9 -11
24 3 29 -3 29 -16 1 -9 -21 -9 -21 -6 5 3 15 0 30 -6 34 -5 3 -8 2 -5 -3 14
-25 -45 -47 -85 -31 -8 3 -24 -5 -36 -19 -11 -13 -31 -24 -44 -24 -12 0 -30
-9 -40 -20 -14 -17 -21 -18 -37 -10 -30 16 -24 39 15 56 19 8 35 18 35 22 0
12 -58 62 -72 62 -18 0 -88 33 -88 42 0 4 -12 8 -26 8 -14 0 -35 5 -46 11 -11
6 -23 7 -27 3 -3 -5 -17 -10 -31 -11 -14 -1 -41 -4 -60 -6 -19 -3 -41 0 -49 7
-8 6 -17 9 -20 6 -3 -3 -9 12 -13 33 -6 28 -3 50 13 89 11 29 24 57 28 63 5 5
11 22 15 38 9 39 -13 35 -52 -9z m648 -421 c10 9 11 9 6 0 -7 -13 31 -39 52
-35 14 3 15 -7 2 -28 -9 -13 -10 -13 -10 0 -1 17 -23 -28 -24 -50 -1 -21 -46
-26 -46 -5 0 9 -4 14 -9 11 -5 -3 -8 5 -7 18 0 13 4 22 9 19 9 -5 10 21 0 30
-3 4 -12 2 -20 -4 -16 -14 -16 -9 -3 26 8 21 13 25 23 16 10 -8 17 -7 27 2z
m407 -40 c1 -32 -1 -34 -8 -15 -7 18 -3 52 5 52 1 0 2 -17 3 -37z m-673 -15
c-5 -8 -2 -9 9 -5 12 5 17 1 17 -13 0 -11 3 -20 8 -21 4 0 15 -2 25 -4 9 -2
24 3 32 12 14 14 19 10 16 -12 -1 -5 7 -1 16 10 10 11 31 21 47 22 23 2 27 -1
23 -17 -3 -13 -1 -17 9 -13 16 6 17 2 5 -29 -7 -18 -18 -24 -42 -26 -19 -1
-56 -7 -83 -13 -37 -9 -61 -9 -101 1 -30 7 -60 10 -68 7 -9 -3 -21 3 -30 16
-19 29 -15 72 6 72 8 0 19 4 23 8 13 13 26 7 20 -9 -5 -12 -1 -14 17 -9 12 4
29 13 37 21 18 17 24 18 14 2z m-960 -44 c3 -8 2 -12 -4 -9 -6 3 -10 10 -10
16 0 14 7 11 14 -7z m1634 -9 c-3 -3 -9 2 -12 12 -6 14 -5 15 5 6 7 -7 10 -15
7 -18z m-1731 -27 c-3 -7 -5 -2 -5 12 0 14 2 19 5 13 2 -7 2 -19 0 -25z m1486
7 c-3 -9 -8 -14 -10 -11 -3 3 -2 9 2 15 9 16 15 13 8 -4z m-803 -146 c0 -6 -4
-7 -10 -4 -5 3 -10 11 -10 16 0 6 5 7 10 4 6 -3 10 -11 10 -16z m-95 -159 c3
-5 1 -10 -4 -10 -6 0 -11 5 -11 10 0 6 2 10 4 10 3 0 8 -4 11 -10z m1420 -140
c3 -5 1 -10 -4 -10 -6 0 -11 5 -11 10 0 6 2 10 4 10 3 0 8 -4 11 -10z m-135
-56 c-13 -24 -30 -32 -30 -15 0 5 3 22 6 39 6 28 8 30 22 16 12 -13 13 -19 2
-40z m-920 42 c0 -3 -4 -8 -10 -11 -5 -3 -10 -1 -10 4 0 6 5 11 10 11 6 0 10
-2 10 -4z m64 -4 c6 -10 -30 -9 -40 1 -4 4 2 7 14 7 11 0 23 -4 26 -8z m-429
-102 c-3 -5 7 -8 24 -5 24 3 29 0 24 -12 -5 -11 -3 -14 6 -8 9 5 12 2 9 -10
-1 -10 -12 -23 -23 -29 -11 -6 -23 -15 -26 -19 -6 -9 -39 1 -39 12 0 4 7 17
16 29 13 20 13 22 0 22 -10 0 -13 6 -10 15 4 8 10 15 16 15 5 0 7 -4 3 -10z
m153 -7 c2 -8 -5 -13 -17 -13 -12 0 -21 6 -21 16 0 18 31 15 38 -3z m137 -33
c3 -5 -6 -21 -22 -36 -28 -25 -28 -25 -3 -18 23 6 23 6 7 -11 -10 -9 -24 -18
-33 -19 -9 -1 -19 -8 -23 -15 -4 -7 -23 -12 -42 -13 -19 0 -44 -7 -56 -14 -37
-23 -62 -18 -58 12 2 21 -1 25 -16 21 -16 -4 -17 -2 -8 14 5 10 15 19 21 19 7
0 7 4 -1 14 -8 10 -9 16 -1 21 5 3 10 0 11 -7 0 -7 4 -5 8 6 6 15 18 19 63 19
31 0 60 -3 66 -7 5 -3 23 1 38 9 34 18 41 18 49 5z m765 -14 c0 -3 -4 -8 -10
-11 -5 -3 -10 -1 -10 4 0 6 5 11 10 11 6 0 10 -2 10 -4z m-3 -83 c1 -24 0 -25
-6 -8 -7 17 -6 35 2 35 2 0 3 -12 4 -27z m-124 -113 c3 -11 1 -18 -4 -14 -5 3
-9 12 -9 20 0 20 7 17 13 -6z m-408 0 c3 -5 1 -10 -4 -10 -6 0 -11 5 -11 10 0
6 2 10 4 10 3 0 8 -4 11 -10z m-88 -32 c-3 -8 -6 -5 -6 6 -1 11 2 17 5 13 3
-3 4 -12 1 -19z m473 -2 c0 -13 -7 -26 -14 -29 -10 -4 -13 -1 -10 9 2 7 6 21
9 29 7 23 15 18 15 -9z m-496 -21 c-4 -8 -10 -12 -15 -9 -11 6 -2 24 11 24 5
0 7 -7 4 -15z m110 -33 c3 -5 1 -22 -4 -38 -4 -16 -9 -22 -9 -14 -1 11 -7 9
-21 -8 l-19 -23 6 38 c7 44 32 68 47 45z m-224 -6 c0 -2 -8 -10 -17 -17 -16
-13 -17 -12 -4 4 13 16 21 21 21 13z m393 -11 c-3 -9 -8 -14 -10 -11 -3 3 -2
9 2 15 9 16 15 13 8 -4z m-145 -100 c-3 -3 -9 2 -12 12 -6 14 -5 15 5 6 7 -7
10 -15 7 -18z"/>
<path d="M2814 1639 c-4 -7 -3 -9 4 -5 5 3 13 0 15 -6 4 -9 6 -10 6 -1 1 17
-16 25 -25 12z"/>
<path d="M2266 2113 c-9 -9 -7 -33 3 -33 12 0 22 28 12 34 -5 3 -11 3 -15 -1z"/>
<path d="M3740 2075 c0 -8 2 -15 4 -15 2 0 6 7 10 15 3 8 1 15 -4 15 -6 0 -10
-7 -10 -15z"/>
<path d="M3733 1963 c-1 -35 1 -42 7 -28 11 26 12 75 2 75 -4 0 -8 -21 -9 -47z"/>
<path d="M1307 1982 c-9 -13 -2 -147 9 -175 6 -16 -4 -22 -28 -18 -12 2 -8
-41 7 -74 7 -16 14 -24 14 -17 1 18 19 15 24 -5 2 -10 3 -7 1 7 -1 14 1 32 7
40 7 12 9 10 9 -7 0 -16 6 -23 19 -23 17 0 18 3 6 37 -7 21 -17 39 -22 40 -5
2 -7 22 -4 45 3 40 2 42 -14 28 -17 -14 -18 -13 -13 15 8 39 -5 124 -15 107z"/>
<path d="M2693 1847 c-18 -7 -40 -20 -50 -31 -17 -18 -17 -18 7 -11 14 4 48 8
75 10 54 2 99 20 90 36 -8 12 -83 10 -122 -4z"/>
<path d="M1568 1778 c3 -14 7 -16 12 -8 4 7 13 9 19 6 6 -4 11 -1 11 7 0 9
-10 15 -24 15 -18 0 -22 -5 -18 -20z"/>
<path d="M3031 1688 c-1 -21 -17 -24 -24 -5 -3 7 -6 5 -6 -5 -1 -10 6 -18 14
-18 9 0 12 -6 9 -17 -5 -17 -5 -17 6 0 6 10 9 28 7 40 -3 15 -5 16 -6 5z"/>
<path d="M2963 1640 c0 -16 4 -30 9 -30 4 0 8 8 8 18 0 14 2 15 10 2 9 -13 10
-13 10 0 0 8 -5 22 -10 30 -9 13 -10 13 -10 0 0 -12 -2 -12 -8 -2 -6 8 -9 2
-9 -18z"/>
<path d="M1290 1630 c0 -5 9 -10 20 -10 11 0 20 5 20 10 0 6 -9 10 -20 10 -11
0 -20 -4 -20 -10z"/>
<path d="M2937 1633 c-10 -9 -9 -23 1 -23 5 0 9 7 9 15 0 17 -1 18 -10 8z"/>
<path d="M3300 1600 c0 -5 5 -10 11 -10 5 0 7 5 4 10 -3 6 -8 10 -11 10 -2 0
-4 -4 -4 -10z"/>
<path d="M3471 1515 c0 -5 6 -19 14 -29 8 -11 15 -15 15 -10 0 6 -7 19 -15 30
-8 10 -14 15 -14 9z"/>
<path d="M3701 1484 c0 -11 3 -14 6 -6 3 7 2 16 -1 19 -3 4 -6 -2 -5 -13z"/>
<path d="M3666 1455 c4 -8 10 -12 15 -9 11 6 2 24 -11 24 -5 0 -7 -7 -4 -15z"/>
<path d="M3677 1423 c-4 -3 -7 -16 -6 -27 0 -19 1 -19 10 3 10 24 8 36 -4 24z"/>
<path d="M2786 1359 c-11 -18 -14 -29 -9 -26 6 4 23 11 38 17 23 9 25 13 15
25 -18 21 -23 19 -44 -16z"/>
<path d="M2690 1365 c0 -8 4 -15 10 -15 5 0 7 7 4 15 -4 8 -8 15 -10 15 -2 0
-4 -7 -4 -15z"/>
<path d="M3191 1314 c0 -11 3 -14 6 -6 3 7 2 16 -1 19 -3 4 -6 -2 -5 -13z"/>
<path d="M3597 1293 c-4 -3 -7 -11 -7 -17 0 -6 5 -5 12 2 6 6 9 14 7 17 -3 3
-9 2 -12 -2z"/>
<path d="M3271 1274 c0 -11 3 -14 6 -6 3 7 2 16 -1 19 -3 4 -6 -2 -5 -13z"/>
<path d="M1915 1270 c-3 -5 -1 -10 4 -10 6 0 11 5 11 10 0 6 -2 10 -4 10 -3 0
-8 -4 -11 -10z"/>
<path d="M3065 1090 c-3 -4 2 -11 11 -14 17 -6 34 0 34 12 0 11 -39 12 -45 2z"/>
<path d="M2855 1059 c-11 -16 -1 -19 13 -3 7 8 8 14 3 14 -5 0 -13 -5 -16 -11z"/>
<path d="M3071 1044 c0 -11 3 -14 6 -6 3 7 2 16 -1 19 -3 4 -6 -2 -5 -13z"/>
<path d="M3006 953 c-3 -8 -2 -11 3 -8 6 3 14 -2 19 -11 5 -9 14 -15 20 -13 6
2 0 14 -13 25 -19 17 -25 19 -29 7z"/>
<path d="M2514 930 c-12 -4 -24 -18 -27 -29 -5 -19 -2 -18 24 7 38 35 38 36 3
22z"/>
<path d="M2416 827 c-10 -8 -17 -19 -15 -26 3 -9 9 -8 23 2 10 8 17 19 15 26
-3 9 -9 8 -23 -2z"/>
<path d="M2653 825 c0 -8 4 -15 9 -15 4 0 8 4 8 9 0 6 -4 12 -8 15 -5 3 -9 -1
-9 -9z"/>
<path d="M2456 817 c3 -10 9 -15 12 -12 3 3 0 11 -7 18 -10 9 -11 8 -5 -6z"/>
<path d="M2710 805 c-10 -12 -10 -19 -2 -27 9 -9 12 -9 12 1 0 8 6 11 15 7 19
-7 20 8 1 23 -10 9 -16 8 -26 -4z"/>
<path d="M2980 789 c0 -5 4 -8 9 -4 5 3 12 1 16 -5 9 -15 22 -12 29 5 4 11 -2
15 -24 15 -17 0 -30 -5 -30 -11z"/>
<path d="M2790 761 c0 -6 4 -13 10 -16 6 -3 7 1 4 9 -7 18 -14 21 -14 7z"/>
<path d="M2728 707 c-3 -15 -2 -27 3 -27 13 0 17 14 9 35 -6 17 -7 16 -12 -8z"/>
</g>
</svg>
