<?xml version="1.0" encoding="UTF-8" standalone="no"?>
<svg width="45px" height="45px" viewBox="0 0 45 45" version="1.1" xmlns="http://www.w3.org/2000/svg" xmlns:xlink="http://www.w3.org/1999/xlink">
    <!-- Generator: Sketch 39.1 (31720) - http://www.bohemiancoding.com/sketch -->
    <title>icon-twitter</title>
    <desc>Created with Sketch.</desc>
    <defs></defs>
    <g id="Page-1" stroke="none" stroke-width="1" fill="none" fill-rule="evenodd">
        <g id="iPhone-6" transform="translate(-75.000000, -534.000000)" fill="#00A2F9">
            <path d="M97.5,579 C109.926407,579 120,568.926407 120,556.5 C120,544.073593 109.926407,534 97.5,534 C85.0735931,534 75,544.073593 75,556.5 C75,568.926407 85.0735931,579 97.5,579 Z M105.93911,552.028103 L105.93911,552.543326 C105.93911,553.948485 105.681501,555.330204 105.166276,556.688525 C104.651051,558.046845 103.917257,559.288051 102.964871,560.412178 C102.012485,561.536305 100.779086,562.449645 99.264637,563.152225 C97.7501876,563.854804 96.0874407,564.206089 94.2763466,564.206089 C91.996866,564.206089 89.9047714,563.597196 88,562.379391 C88.3122576,562.410617 88.6401232,562.42623 88.9836066,562.42623 C90.888378,562.42623 92.5901564,561.848562 94.088993,560.693208 C93.1834459,560.661983 92.3793946,560.380955 91.676815,559.850117 C90.9742354,559.319279 90.4980496,558.647935 90.2482436,557.836066 C90.4980496,557.898517 90.747852,557.929742 90.9976581,557.929742 C91.3723672,557.929742 91.7314581,557.867292 92.0749415,557.742389 C91.1381686,557.555034 90.3575363,557.086655 89.7330211,556.337237 C89.1085059,555.587818 88.7962529,554.729123 88.7962529,553.761124 L88.7962529,553.714286 C89.3895424,554.026543 90.0140482,554.198282 90.6697892,554.229508 C89.4519845,553.386413 88.8430913,552.246689 88.8430913,550.810304 C88.8430913,550.060886 89.0304431,549.37393 89.4051522,548.749415 C90.4356023,549.998445 91.6768077,550.997654 93.1288056,551.747073 C94.5808035,552.496491 96.1498745,552.918032 97.8360656,553.01171 C97.7736141,552.699452 97.7423888,552.387199 97.7423888,552.074941 C97.7423888,550.950814 98.1405112,549.990636 98.9367681,549.194379 C99.7330251,548.398122 100.693203,548 101.81733,548 C103.003909,548 104.003119,548.421541 104.814988,549.264637 C105.751761,549.077282 106.626069,548.749417 107.437939,548.28103 C107.125681,549.249029 106.516788,549.998436 105.611241,550.529274 C106.454337,550.435597 107.250582,550.232632 108,549.920375 C107.437936,550.732244 106.75098,551.434814 105.93911,552.028103 Z" id="icon-twitter"></path>
        </g>
    </g>
</svg>