<?xml version="1.0" encoding="UTF-8" standalone="no"?>
<svg width="45px" height="45px" viewBox="0 0 45 45" version="1.1" xmlns="http://www.w3.org/2000/svg" xmlns:xlink="http://www.w3.org/1999/xlink">
    <!-- Generator: Sketch 39.1 (31720) - http://www.bohemiancoding.com/sketch -->
    <title>icon-linkedin</title>
    <desc>Created with Sketch.</desc>
    <defs></defs>
    <g id="Page-1" stroke="none" stroke-width="1" fill="none" fill-rule="evenodd">
        <g id="iPhone-6" transform="translate(-195.000000, -534.000000)" fill="#0075B8">
            <path d="M217.5,579 C229.926407,579 240,568.926407 240,556.5 C240,544.073593 229.926407,534 217.5,534 C205.073593,534 195,544.073593 195,556.5 C195,568.926407 205.073593,579 217.5,579 Z M222.941452,557.234192 C222.691646,556.906322 222.223267,556.742389 221.5363,556.742389 C220.693204,556.742389 220.099924,556.992191 219.75644,557.491803 C219.412957,557.991415 219.241218,558.693985 219.241218,559.599532 L219.241218,566.437939 C219.241218,566.594068 219.19438,566.718969 219.100703,566.812646 C219.007025,566.906324 218.882124,566.953162 218.725995,566.953162 L215.166276,566.953162 C215.041373,566.953162 214.924278,566.906324 214.814988,566.812646 C214.705698,566.718969 214.651054,566.594068 214.651054,566.437939 L214.651054,553.791569 C214.651054,553.666666 214.705698,553.549571 214.814988,553.440281 C214.924278,553.330991 215.041373,553.276347 215.166276,553.276347 L218.632319,553.276347 C218.757222,553.276347 218.858704,553.307572 218.936768,553.370023 C219.014833,553.432475 219.069477,553.526151 219.100703,553.651054 L219.100703,553.885246 C219.131928,553.947697 219.147541,554.056986 219.147541,554.213115 C220.021862,553.370019 221.208423,552.948478 222.70726,552.948478 C224.362225,552.948478 225.658075,553.370019 226.594848,554.213115 C227.531621,555.05621 228,556.289609 228,557.913349 L228,566.437939 C228,566.594068 227.945356,566.718969 227.836066,566.812646 C227.726775,566.906324 227.609681,566.953162 227.484778,566.953162 L223.831382,566.953162 C223.706479,566.953162 223.589384,566.906324 223.480094,566.812646 C223.370804,566.718969 223.316159,566.594068 223.316159,566.437939 L223.316159,558.75644 C223.316159,558.069474 223.191258,557.562063 222.941452,557.234192 Z M212.12178,551.145199 C211.653393,551.629198 211.083532,551.871194 210.412178,551.871194 C209.740824,551.871194 209.170963,551.629198 208.702576,551.145199 C208.23419,550.6612 208,550.083532 208,549.412178 C208,548.740824 208.23419,548.170963 208.702576,547.702576 C209.170963,547.23419 209.740824,547 210.412178,547 C211.083532,547 211.653393,547.23419 212.12178,547.702576 C212.590166,548.170963 212.824356,548.740824 212.824356,549.412178 C212.824356,550.083532 212.590166,550.6612 212.12178,551.145199 Z M212.730679,553.791569 L212.730679,566.437939 C212.730679,566.594068 212.676035,566.718969 212.566745,566.812646 C212.457455,566.906324 212.34036,566.953162 212.215457,566.953162 L208.655738,566.953162 C208.499609,566.953162 208.374708,566.906324 208.28103,566.812646 C208.187353,566.718969 208.140515,566.594068 208.140515,566.437939 L208.140515,553.791569 C208.140515,553.666666 208.187353,553.549571 208.28103,553.440281 C208.374708,553.330991 208.499609,553.276347 208.655738,553.276347 L212.215457,553.276347 C212.34036,553.276347 212.457455,553.330991 212.566745,553.440281 C212.676035,553.549571 212.730679,553.666666 212.730679,553.791569 Z" id="icon-linkedin"></path>
        </g>
    </g>
</svg>