<?xml version="1.0" encoding="UTF-8" standalone="no"?>
<svg width="45px" height="45px" viewBox="0 0 45 45" version="1.1" xmlns="http://www.w3.org/2000/svg" xmlns:xlink="http://www.w3.org/1999/xlink">
    <!-- Generator: Sketch 39.1 (31720) - http://www.bohemiancoding.com/sketch -->
    <title>icon-instagram</title>
    <desc>Created with Sketch.</desc>
    <defs></defs>
    <g id="Page-1" stroke="none" stroke-width="1" fill="none" fill-rule="evenodd">
        <g id="iPhone-6" transform="translate(-135.000000, -534.000000)" fill="#FC008C">
            <path d="M157.5,579 C169.926407,579 180,568.926407 180,556.5 C180,544.073593 169.926407,534 157.5,534 C145.073593,534 135,544.073593 135,556.5 C135,568.926407 145.073593,579 157.5,579 Z M165.985948,551.496487 L165.985948,549.482436 C165.985948,549.138952 165.814209,548.967213 165.470726,548.967213 L163.503513,548.967213 C163.16003,548.967213 162.98829,549.138952 162.98829,549.482436 L162.98829,551.496487 C162.98829,551.808745 163.16003,551.964871 163.503513,551.964871 L165.470726,551.964871 C165.814209,551.964871 165.985948,551.808745 165.985948,551.496487 L165.985948,551.496487 Z M150.482436,564.985948 L165.470726,564.985948 C165.814209,564.985948 165.985948,564.814209 165.985948,564.470726 L165.985948,555.992974 L163.87822,555.992974 C163.940672,556.367683 163.971897,556.695549 163.971897,556.976581 C163.971897,558.631546 163.386423,560.044491 162.215457,561.215457 C161.044491,562.386423 159.631546,562.971897 157.976581,562.971897 C156.321615,562.971897 154.908671,562.386423 153.737705,561.215457 C152.566739,560.044491 151.981265,558.631546 151.981265,556.976581 C151.981265,556.633097 152.01249,556.305232 152.074941,555.992974 L150.014052,555.992974 L150.014052,564.470726 C150.014052,564.814209 150.170178,564.985948 150.482436,564.985948 L150.482436,564.985948 Z M158,552.995316 C156.891485,552.995316 155.94692,553.385632 155.166276,554.166276 C154.385632,554.94692 153.995316,555.883679 153.995316,556.976581 C153.995316,558.069482 154.385632,559.006241 155.166276,559.786885 C155.94692,560.567529 156.891485,560.957845 158,560.957845 C159.108515,560.957845 160.05308,560.567529 160.833724,559.786885 C161.614368,559.006241 162.004684,558.069482 162.004684,556.976581 C162.004684,555.883679 161.614368,554.94692 160.833724,554.166276 C160.05308,553.385632 159.108515,552.995316 158,552.995316 L158,552.995316 Z M165.985948,547 C166.548012,547 167.024198,547.195158 167.41452,547.58548 C167.804842,547.975802 168,548.436375 168,548.967213 L168,564.985948 C168,565.516786 167.804842,565.977359 167.41452,566.367681 C167.024198,566.758004 166.548012,566.953162 165.985948,566.953162 L150.014052,566.953162 C149.451988,566.953162 148.975802,566.758004 148.58548,566.367681 C148.195158,565.977359 148,565.516786 148,564.985948 L148,548.967213 C148,548.436375 148.195158,547.975802 148.58548,547.58548 C148.975802,547.195158 149.451988,547 150.014052,547 L165.985948,547 Z" id="icon-instagram"></path>
        </g>
    </g>
</svg>