<?xml version="1.0" encoding="UTF-8" standalone="no"?>
<svg width="45px" height="45px" viewBox="0 0 45 45" version="1.1" xmlns="http://www.w3.org/2000/svg" xmlns:xlink="http://www.w3.org/1999/xlink">
    <!-- Generator: Sketch 39.1 (31720) - http://www.bohemiancoding.com/sketch -->
    <title>icon-email</title>
    <desc>Created with Sketch.</desc>
    <defs></defs>
    <g id="Page-1" stroke="none" stroke-width="1" fill="none" fill-rule="evenodd">
        <g id="iPhone-6" transform="translate(-255.000000, -534.000000)" fill="#FF6100">
            <path d="M277.5,579 C289.926407,579 300,568.926407 300,556.5 C300,544.073593 289.926407,534 277.5,534 C265.073593,534 255,544.073593 255,556.5 C255,568.926407 265.073593,579 277.5,579 Z M285.985948,548 C286.548012,548 287.024198,548.195158 287.41452,548.58548 C287.804842,548.975802 288,549.451988 288,550.014052 L288,562.004684 C288,562.566748 287.804842,563.042933 287.41452,563.433255 C287.024198,563.823577 286.548012,564.018735 285.985948,564.018735 L270.014052,564.018735 C269.451988,564.018735 268.975802,563.823577 268.58548,563.433255 C268.195158,563.042933 268,562.566748 268,562.004684 L268,550.014052 C268,549.451988 268.195158,548.975802 268.58548,548.58548 C268.975802,548.195158 269.451988,548 270.014052,548 L285.985948,548 Z M285.985948,552.028103 L285.985948,550.014052 L277.976581,555.025761 L270.014052,550.014052 L270.014052,552.028103 L277.976581,556.992974 L285.985948,552.028103 Z" id="icon-email"></path>
        </g>
    </g>
</svg>